#!OML:ASF E:\emotionWalksFemale\Project 1\Capture day 1\Session 1\Female1.ASF
:FULLY-SPECIFIED
:DEGREES
586
root 8.77698 14.9084 16.6015 -179.246 -5.14344 -171.456
lowerback 11.6219 2.11895 -2.13952
upperback -2.50451 1.74531 -5.25927
thorax -9.14408 0.66802 -4.7685
lowerneck -9.02584 -4.88146 -10.5367
upperneck 2.45873 -6.65897 16.414
head 3.15989 -3.06195 6.39003
rclavicle 1.23246e-014 -1.90833e-014
rhumerus -32.4803 48.9338 -122.824
rradius 53.713
rwrist 3.66085
rhand -2.43036 -57.7788
rfingers 7.12502
rthumb 23.2606 -446.394
lclavicle 1.23246e-014 -1.90833e-014
lhumerus -57.5646 -63.3025 145.418
lradius 103.811
lwrist 30.1673
lhand 18.4746 -27.3834
lfingers 7.12502
lthumb 43.1115 -3.177
rfemur -14.2887 4.83205 37.8876
rtibia 32
rfoot -18.3279 -18.2231
rtoes 9.44321
lfemur -32.4927 -4.31761 -12.1521
ltibia 77.0793
lfoot -14.4171 -1.18661
ltoes -22.7809
587
root 8.7866 14.8848 16.4739 -179.268 -4.86805 -171.346
lowerback 11.3433 2.21247 -2.14294
upperback -2.34609 1.90726 -5.18871
thorax -8.80017 0.757554 -4.69641
lowerneck -8.81991 -4.83877 -10.766
upperneck 2.25859 -6.58957 16.6494
head 3.07478 -3.03927 6.51432
rclavicle 2.66371e-014 6.36111e-015
rhumerus -32.9357 49.6845 -123.256
rradius 54.4779
rwrist 3.33775
rhand -3.23874 -57.3816
rfingers 7.12502
rthumb 22.4848 -446.093
lclavicle 2.66371e-014 6.36111e-015
lhumerus -57.1499 -63.2934 145.066
lradius 103.901
lwrist 30.245
lhand 19.2058 -27.1349
lfingers 7.12502
lthumb 43.7946 -3.17584
rfemur -13.7981 4.99271 38.2177
rtibia 32.3147
rfoot -18.7975 -18.449
rtoes 9.16614
lfemur -33.5905 -4.08422 -12.162
ltibia 76.452
lfoot -15.2427 -0.53333
ltoes -22.1579
588
root 8.79207 14.868 16.347 -179.323 -4.70132 -171.209
lowerback 11.0689 2.26507 -2.13263
upperback -2.13266 2.02431 -5.08384
thorax -8.40396 0.827565 -4.58339
lowerneck -8.49006 -4.78154 -10.9555
upperneck 1.7624 -6.49196 16.9249
head 2.87869 -3.01799 6.64975
rclavicle 4.59193e-014 -8.90555e-014
rhumerus -33.0602 50.0203 -123.347
rradius 55.2257
rwrist 3.52093
rhand -4.07104 -57.2401
rfingers 7.12502
rthumb 21.6857 -446.046
lclavicle 4.59193e-014 -8.90555e-014
lhumerus -56.6649 -63.4016 144.677
lradius 104.002
lwrist 30.6823
lhand 19.6341 -26.9911
lfingers 7.12502
lthumb 44.194 -3.18095
rfemur -13.2462 4.98811 38.5164
rtibia 32.524
rfoot -19.1069 -18.5426
rtoes 8.11933
lfemur -34.6516 -4.03762 -12.1781
ltibia 75.624
lfoot -16.0571 0.230232
ltoes -23.0353
589
root 8.79576 14.8547 16.2188 -179.355 -4.50889 -171.188
lowerback 11.2564 2.31457 -1.91271
upperback -2.21531 2.0884 -5.2148
thorax -8.58563 0.837241 -4.87652
lowerneck -8.11059 -4.68639 -11.1004
upperneck 1.65809 -6.41808 17.4025
head 2.79889 -2.99921 6.84122
rclavicle -5.76476e-015 7.95139e-014
rhumerus -33.1397 50.0267 -123.705
rradius 55.7982
rwrist 3.70899
rhand -3.42797 -57.4334
rfingers 7.12502
rthumb 22.3032 -446.166
lclavicle -5.76476e-015 7.95139e-014
lhumerus -57.011 -63.3718 144.813
lradius 103.98
lwrist 30.8054
lhand 19.836 -27.3613
lfingers 7.12502
lthumb 44.3822 -3.6225
rfemur -12.6447 5.07456 38.6694
rtibia 32.5771
rfoot -19.4409 -18.6741
rtoes 7.73459
lfemur -35.5956 -4.06207 -12.3412
ltibia 74.5588
lfoot -16.889 1.32244
ltoes -24.1683
590
root 8.8004 14.8416 16.0904 -179.385 -4.39985 -171.144
lowerback 11.1371 2.39443 -1.64784
upperback -2.09748 2.23593 -5.29774
thorax -8.36441 0.896441 -5.12963
lowerneck -8.42065 -4.80201 -10.9675
upperneck 2.07856 -6.59238 17.216
head 2.9867 -3.05982 6.73858
rclavicle 5.42682e-014 -2.54444e-014
rhumerus -32.9035 50.8472 -123.729
rradius 56.1678
rwrist 3.47063
rhand -2.03733 -57.3777
rfingers 7.12502
rthumb 23.6376 -445.945
lclavicle 5.42682e-014 -2.54444e-014
lhumerus -56.9416 -63.5562 144.775
lradius 103.822
lwrist 30.2573
lhand 19.6922 -28.0113
lfingers 7.12502
lthumb 44.2482 -4.22163
rfemur -12.0493 5.08629 38.8584
rtibia 32.5773
rfoot -20.1754 -18.6989
rtoes 8.92031
lfemur -36.4852 -4.17555 -12.4453
ltibia 73.3141
lfoot -17.3426 2.31364
ltoes -25.1061
591
root 8.80633 14.8351 15.9644 -179.383 -4.45825 -171.056
lowerback 11.2332 2.37369 -1.56646
upperback -2.11862 2.22999 -5.22142
thorax -8.44235 0.894238 -5.09942
lowerneck -8.49573 -4.83597 -10.864
upperneck 2.25615 -6.62383 16.8991
head 3.0385 -3.06685 6.61462
rclavicle -4.81059e-014 1.27222e-013
rhumerus -33.5706 51.4218 -124.339
rradius 56.668
rwrist 3.30175
rhand -1.06367 -57.0106
rfingers 7.12502
rthumb 24.5712 -445.454
lclavicle -4.81059e-014 1.27222e-013
lhumerus -56.8897 -63.3968 144.953
lradius 103.738
lwrist 30.1254
lhand 18.8086 -27.901
lfingers 7.12502
lthumb 43.4236 -3.80644
rfemur -11.535 5.07916 39.0994
rtibia 32.598
rfoot -21.0315 -18.6133
rtoes 9.8068
lfemur -37.4329 -4.47931 -12.4504
ltibia 71.904
lfoot -17.5772 3.12707
ltoes -26.8059
592
root 8.81152 14.8294 15.8378 -179.365 -4.41153 -171.069
lowerback 11.2115 2.37997 -1.45719
upperback -2.0604 2.24921 -5.28012
thorax -8.35853 0.896674 -5.2239
lowerneck -8.43564 -4.8641 -10.7047
upperneck 2.13583 -6.65432 16.7202
head 2.98457 -3.08955 6.52867
rclavicle 2.72335e-014 2.8625e-014
rhumerus -34.0867 51.2962 -124.896
rradius 57.2676
rwrist 3.719
rhand 0.0738513 -56.5551
rfingers 7.12502
rthumb 25.6611 -444.846
lclavicle 2.72335e-014 2.8625e-014
lhumerus -56.7198 -63.567 144.864
lradius 103.905
lwrist 30.5378
lhand 19.0171 -27.2313
lfingers 7.12502
lthumb 43.6184 -3.20755
rfemur -10.9888 5.11385 39.2339
rtibia 32.6099
rfoot -21.5144 -18.6906
rtoes 9.30754
lfemur -38.2576 -4.76424 -12.538
ltibia 70.3265
lfoot -17.9609 4.02537
ltoes -27.4055
